<?xml version="1.0" standalone="no"?><!DOCTYPE svg PUBLIC "-//W3C//DTD SVG 1.1//EN" "http://www.w3.org/Graphics/SVG/1.1/DTD/svg11.dtd"><svg class="icon" width="200px" height="53.06px" viewBox="0 0 3860 1024" version="1.1" xmlns="http://www.w3.org/2000/svg"><path d="M3795.574713 72.014387l-120.652674 120.449213a162.769206 162.769206 0 0 1-230.114966 0l-120.856136-120.449213a244.15381 244.15381 0 0 0-345.884564 0l-120.652674 120.449213a162.769206 162.769206 0 0 1-230.114966 0l-120.449212-120.449213a244.15381 244.15381 0 0 0-345.884564 0l-120.449213 120.449213a162.769206 162.769206 0 0 1-230.318427 0L1689.748104 71.810925a244.15381 244.15381 0 0 0-345.884564 0l-120.652674 120.449213a162.769206 162.769206 0 0 1-230.318427 0L872.443226 71.810925a244.15381 244.15381 0 0 0-345.884564 0l-120.652674 120.449213a162.769206 162.769206 0 0 1-230.114966 0L57.579886 72.014387 0.000279 131.425147l120.652674 120.652675a244.15381 244.15381 0 0 0 345.884564 0l120.04229-120.652675a162.769206 162.769206 0 0 1 230.114966 0l120.652674 120.652675a244.15381 244.15381 0 0 0 345.884564 0l120.449213-120.652675a162.769206 162.769206 0 0 1 230.318427 0l120.449213 120.652675a244.15381 244.15381 0 0 0 345.884563 0l120.449213-120.449213a162.769206 162.769206 0 0 1 230.318427 0l120.449213 120.449213a244.15381 244.15381 0 0 0 345.884564 0l120.652674-120.652675a162.769206 162.769206 0 0 1 230.114966 0l120.652674 120.652675a244.15381 244.15381 0 0 0 345.884564 0l120.449213-120.652675z" fill="#231815" /><path d="M3795.574713 421.764719l-120.652674 120.652675a162.769206 162.769206 0 0 1-230.114966 0l-120.856136-120.652675a244.15381 244.15381 0 0 0-345.884564 0l-120.652674 120.652675a162.769206 162.769206 0 0 1-230.114966 0l-120.449212-120.449213a244.15381 244.15381 0 0 0-345.884564 0l-120.449213 120.449213a162.769206 162.769206 0 0 1-230.318427 0l-120.449213-120.652675a244.15381 244.15381 0 0 0-345.884564 0l-120.652674 120.652675a162.769206 162.769206 0 0 1-230.318427 0l-120.449213-120.652675a244.15381 244.15381 0 0 0-345.884564 0l-120.652674 120.652675a162.769206 162.769206 0 0 1-230.114966 0L57.579886 421.764719l-57.579607 59.614222 120.652674 120.449213a244.15381 244.15381 0 0 0 345.884564 0l120.04229-120.449213a162.769206 162.769206 0 0 1 230.114966 0l120.652674 120.449213a244.15381 244.15381 0 0 0 345.884564 0l120.449213-120.449213a162.769206 162.769206 0 0 1 230.318427 0l120.449213 120.449213a244.15381 244.15381 0 0 0 345.884563 0l120.449213-120.449213a162.769206 162.769206 0 0 1 230.318427 0l120.449213 120.449213a244.15381 244.15381 0 0 0 345.884564 0l120.652674-120.449213a162.769206 162.769206 0 0 1 230.114966 0l120.652674 120.449213a244.15381 244.15381 0 0 0 345.884564 0l120.449213-120.449213z" fill="#231815" /><path d="M3795.574713 771.515052l-120.652674 120.652674a162.769206 162.769206 0 0 1-230.114966 0l-120.856136-120.652674a244.15381 244.15381 0 0 0-345.884564 0l-120.652674 120.449213a162.769206 162.769206 0 0 1-230.114966 0l-120.449212-120.449213a244.15381 244.15381 0 0 0-345.884564 0l-120.449213 120.449213a162.769206 162.769206 0 0 1-230.318427 0l-120.449213-120.449213a244.15381 244.15381 0 0 0-345.884564 0l-120.652674 120.652674a162.769206 162.769206 0 0 1-230.318427 0l-120.449213-120.449213a244.15381 244.15381 0 0 0-345.884564 0l-120.652674 120.652675a162.769206 162.769206 0 0 1-230.114966 0l-118.211136-120.856136-57.579607 59.614222 120.856136 121.059597a244.15381 244.15381 0 0 0 345.884564 0l119.838828-121.059597a162.769206 162.769206 0 0 1 230.114966 0l120.856135 121.059597a244.15381 244.15381 0 0 0 345.884564 0l120.449213-120.652674a162.769206 162.769206 0 0 1 230.318427 0l120.449213 120.652674a244.15381 244.15381 0 0 0 345.884564 0l120.449213-120.652674a162.769206 162.769206 0 0 1 230.318427 0l120.449213 120.652674a244.15381 244.15381 0 0 0 345.884564 0l120.652674-120.652674a162.769206 162.769206 0 0 1 230.114966 0l120.652674 120.652674a244.15381 244.15381 0 0 0 345.884564 0l120.449212-120.652674z" fill="#231815" /></svg>